<svg xmlns="http://www.w3.org/2000/svg" viewBox="0 0 1181.46582 117.86552"><defs><style>.a{fill:#83a0d6;}.b{fill:#231f20;}.c{fill:#f9fbfd;}.d{fill:#fff100;}</style></defs><polygon class="a" points="289.929 0 389.871 0 400.329 11.508 400.329 107.584 387.728 117.863 297.242 117.863 282.472 107.836 282.472 10.163 289.929 0"/><polygon class="b" points="296.927 102.478 387.405 12.109 387.5 13.76 297.191 103.961 296.927 102.478"/><polygon class="b" points="388.055 106.668 294.471 13.06 294.819 11.661 388.256 105.123 388.055 106.668"/><polygon class="b" points="400.329 0 400.329 117.863 384.614 117.863 384.614 66.887 298.193 66.887 298.193 117.863 282.472 117.863 282.472 0 298.193 0 298.193 51.167 384.614 51.167 384.614 0 400.329 0"/><circle class="c" cx="341.40024" cy="58.93174" r="13.98447"/><polygon class="d" points="144.865 0.001 252.842 0.001 259.331 5.611 259.331 117.865 141.472 117.865 141.472 4.87 144.865 0.001"/><rect class="b" x="118.00242" y="58.31497" width="164.79867" height="1.23557" transform="translate(16.95557 158.83987) rotate(-44.96046)"/><rect class="b" x="199.69426" y="-23.14952" width="1.23472" height="164.37741" transform="translate(16.90996 158.9101) rotate(-44.99257)"/><polygon class="b" points="259.331 0 259.331 15.714 208.259 15.714 208.259 117.866 192.544 117.866 192.544 15.714 141.472 15.714 141.472 0 259.331 0"/><polygon class="d" points="160.427 116.87 142.467 116.87 142.467 98.911 141.472 98.911 141.472 116.87 141.472 117.865 141.472 117.865 142.467 117.865 142.467 117.865 160.427 117.865 160.427 116.87"/><polygon class="d" points="240.377 116.869 258.337 116.869 258.337 98.91 259.331 98.91 259.331 116.869 259.331 117.864 259.331 117.865 258.337 117.865 258.337 117.864 240.377 117.864 240.377 116.869"/><polygon class="a" points="7.457 0 107.4 0 117.857 11.508 117.857 107.584 105.256 117.863 14.77 117.863 0 107.836 0 10.163 7.457 0"/><polygon class="b" points="14.456 102.478 104.933 12.109 105.029 13.76 14.72 103.961 14.456 102.478"/><polygon class="b" points="105.583 106.668 11.999 13.06 12.347 11.661 105.784 105.123 105.583 106.668"/><polygon class="b" points="117.857 0 117.857 117.863 102.142 117.863 102.142 66.887 15.721 66.887 15.721 117.863 0 117.863 0 0 15.721 0 15.721 51.167 102.142 51.167 102.142 0 117.857 0"/><circle class="c" cx="58.92865" cy="58.93174" r="13.98447"/><rect x="466.12975" y="0.00014" width="1.43945" height="117.86523"/><path class="a" d="M554.55722,14.63938V.62145h3.84729V35.16054h-3.84729V18.21175H536.87529V35.16054H533.028V.62145h3.8473V14.63938Z"/><path class="a" d="M584.02541,35.16054h-3.849V.62145h3.849Z"/><path class="a" d="M637.67367,17.79935c.09164,4.67208-.41239,8.52108-3.56388,12.18508a17.06589,17.06589,0,0,1-12.78244,5.77008A17.86691,17.86691,0,1,1,636.17006,7.49125l-2.80869,2.61353a14.04849,14.04849,0,0,0-11.866-6.50493,14.33188,14.33188,0,0,0-14.10787,14.42522,13.92456,13.92456,0,0,0,4.03058,9.75824,14.52025,14.52025,0,0,0,9.80405,4.39716c5.9992,0,12.32084-4.39716,12.32084-10.81214H623.28918V17.796Z"/><path class="a" d="M679.37275,14.63938V.62145h3.849V35.16054h-3.849V18.21175H661.69082V35.16054h-3.849V.62145h3.849V14.63938Z"/><path class="a" d="M914.5775,14.616V.59807h3.84729V35.13716H914.5775V18.18837H896.89556V35.13716h-3.84729V.59807h3.84729V14.616Z"/><path class="a" d="M944.04569,35.13716h-3.849V.59807h3.849Z"/><path class="a" d="M997.69394,17.776c.09165,4.67208-.41238,8.52108-3.56387,12.18508a17.06589,17.06589,0,0,1-12.78244,5.77008A17.86691,17.86691,0,1,1,996.19034,7.46787l-2.80869,2.61353a14.04849,14.04849,0,0,0-11.866-6.50493,14.33187,14.33187,0,0,0-14.10787,14.42522,13.9246,13.9246,0,0,0,4.03057,9.75824,14.52028,14.52028,0,0,0,9.80406,4.39716c5.9992,0,12.32084-4.39716,12.32084-10.81214H983.30945V17.77258Z"/><path class="a" d="M1039.393,14.616V.59807h3.849V35.13716h-3.849V18.18837H1021.7111V35.13716h-3.849V.59807h3.849V14.616Z"/><path class="a" d="M724.82,35.13159h-3.84673V4.1694h-8.33655V.59755h20.62V4.1694h-8.42819Z"/><path class="a" d="M751.71493.59755h17.90842V4.1694h-14.06V14.43017H769.211V18.002H755.56336V31.55976h14.06v3.56337H751.71493Z"/><path class="a" d="M817.03978,8.15357a14.78289,14.78289,0,0,0-10.534-4.58146,14.29416,14.29416,0,0,0,.09163,28.58153,15.12053,15.12053,0,0,0,10.44235-4.58146v4.763A17.822,17.822,0,1,1,806.72863.00367h.00626a16.67991,16.67991,0,0,1,10.30489,3.39367Z"/><path class="a" d="M859.78481,14.61343V.59755h3.84844v34.534h-3.84844V18.18528H842.10547V35.13159h-3.84672V.59755h3.84672V14.61343Z"/><path d="M583.74989,65.84275a30.52425,30.52425,0,0,0-8.0822-5.75958A26.38689,26.38689,0,0,0,564.985,57.66761c-14.3065,0-24.89721,11.51917-24.89721,25.82567,0,16.81452,13.6559,25.268,24.98917,25.268a25.76,25.76,0,0,0,11.52015-2.87979,28.184,28.184,0,0,0,7.15276-5.20192V109.226a32.26217,32.26217,0,0,1-18.67291,6.03842c-18.39309,0-32.049-13.93473-32.049-31.86409,0-18.48652,13.84179-32.23536,32.42077-32.23536a29.20272,29.20272,0,0,1,18.30113,6.13087Z"/><path d="M618.03051,77.36192h31.77114V52.18686h6.87491v61.96272h-6.87491V83.86505H618.03051v30.28453h-6.87393V52.18686h6.87393Z"/><path d="M694.3012,90.18181c0,5.20241,0,10.86905,4.92407,15.04956a16.55663,16.55663,0,0,0,20.43786,0c4.92308-4.18051,4.92308-9.84715,4.92308-15.04956V52.18686h6.87491V92.03971c0,5.20241-.55766,10.21893-3.90168,14.86367-3.7158,5.10947-10.21893,8.361-18.11524,8.361s-14.39945-3.25157-18.11525-8.361c-3.344-4.64474-3.90168-9.66126-3.90168-14.86367V52.18686h6.87393Z"/><path d="M769.08674,52.18686v55.46007H786.1796v6.50265H762.21184V52.18686Z"/><path d="M844.427,96.68494H818.04369l-7.4316,17.46464h-7.61748l28.51908-64.93546,27.77651,64.93546h-7.61748Zm-2.6944-6.50313L831.32781,65.378,820.73808,90.18181Z"/><path d="M919.58238,52.18686,937.047,99.47179l17.46464-47.28493h7.61748L937.047,117.86538,911.9649,52.18686Z"/><path d="M992.50807,52.18686v61.96272h-6.87393V52.18686Z"/><path d="M1050.94137,64.44909a14.94216,14.94216,0,0,0-3.62286-4.64475,11.14865,11.14865,0,0,0-6.96785-2.13673c-6.13136,0-10.40384,3.80874-10.40384,9.56832a6.49708,6.49708,0,0,0,2.32164,5.3883,20.23342,20.23342,0,0,0,6.50313,3.90168l5.94547,2.601c3.62286,1.57956,6.96786,3.25157,9.56833,5.85253a14.91091,14.91091,0,0,1,4.45935,11.24082c0,11.42671-8.454,19.0442-19.60137,19.0442-4.08757,0-9.19655-.836-13.47-5.01653a22.45238,22.45238,0,0,1-5.75958-10.962l6.688-1.8579a14.62468,14.62468,0,0,0,3.7158,7.89632,11.84489,11.84489,0,0,0,8.91869,3.437c8.454,0,12.44861-6.03792,12.44861-12.26222a9.24458,9.24458,0,0,0-3.06617-7.2462c-1.765-1.672-4.18052-2.78685-7.43159-4.27346l-5.5737-2.601a27.41616,27.41616,0,0,1-8.26809-5.10946,12.86492,12.86492,0,0,1-4.27346-10.126c0-9.56832,7.33865-15.978,17.3717-15.978a16.78526,16.78526,0,0,1,9.94009,2.78684,18.736,18.736,0,0,1,6.03842,6.87442Z"/><path d="M1097.4847,58.6895v55.46008h-6.87393V58.6895h-15.05005V52.18686h36.974V58.6895Z"/><path d="M1166.60263,96.68494H1140.2193l-7.43159,17.46464h-7.61748l28.51908-64.93546,27.77651,64.93546h-7.61748Zm-2.69439-6.50313L1153.50342,65.378l-10.58973,24.80377Z"/></svg>